PathFileType	3	(X/Y/Z)	D:\Jess\PFP\Labelled\PA02\20250516\SRRun01.trc
DataRate	CameraRate	NumFrames	NumMarkers	Units	OrigDataRate	OrigDataStartFrame	OrigNumFrames
250.0	250.0	4	37	mm	250.0	35312	2501
Frame#	Time	C7			T10			CLAV			LSHO			RSHO			LASIS			RASIS			LPSIS			RPSIS			LILCR			RILCR			LGTR			LTHI			LLTHI			LLEP			LMEP			LPSH			LLSH			LDSH			LLMAL			LMMAL			LTOE			L5TH			LHEE			RGTR			RTHI			RLTHI			RLEP			RMEP			RPSH			RLSH			RDSH			RLMAL			RMMAL			RTOE			R5TH			RHEE			
		X1	Y1	Z1	X2	Y2	Z2	X3	Y3	Z3	X4	Y4	Z4	X5	Y5	Z5	X6	Y6	Z6	X7	Y7	Z7	X8	Y8	Z8	X9	Y9	Z9	X10	Y10	Z10	X11	Y11	Z11	X12	Y12	Z12	X13	Y13	Z13	X14	Y14	Z14	X15	Y15	Z15	X16	Y16	Z16	X17	Y17	Z17	X18	Y18	Z18	X19	Y19	Z19	X20	Y20	Z20	X21	Y21	Z21	X22	Y22	Z22	X23	Y23	Z23	X24	Y24	Z24	X25	Y25	Z25	X26	Y26	Z26	X27	Y27	Z27	X28	Y28	Z28	X29	Y29	Z29	X30	Y30	Z30	X31	Y31	Z31	X32	Y32	Z32	X33	Y33	Z33	X34	Y34	Z34	X35	Y35	Z35	X36	Y36	Z36	X37	Y37	Z37	

313	141.244	846.3570448199499	1475.954610740277	-333.8927319266672	756.6642584478515	1215.971610689024	-298.2964988004559	979.9022661551803	1376.90643121071	-348.9606095944581	883.9724987134447	1412.678750898526	-508.4047172717472	943.7448547093034	1427.152376941402	-162.0842244449795	924.4109286759711	956.8198727117474	-476.5907086343936	964.9090811214292	922.4667105047849	-234.6010575857572	728.6343510698022	1011.627931929088	-337.5203320321029	732.5442123823206	1012.486107476091	-286.0111200587689	852.4382442136197	1038.787307924013	-511.4796818468803	899.6286518035968	1000.11137227555	-141.4356712917451	858.216771949301	859.0243020761526	-538.4703158704791	997.5142444839065	733.5068210663687	-472.4656743805401	899.4739871554867	602.2814934983837	-490.2154019058692	935.4235813471063	490.6353719648127	-464.6743391742177	nan	nan	nan	990.2513862569494	382.4233550763072	-394.9910395465915	892.3477836573807	277.6001419880874	-444.3268737280592	929.4960260583657	201.084504671654	-361.598914202577	844.065019591055	108.6177734041524	-388.7822145090628	nan	nan	nan	986.7322167879562	63.75167338577258	-366.3911582678616	952.5425018515289	38.87134729398573	-416.1027895426594	771.7782994137383	88.04532515672402	-339.6675574252611	879.2608480085847	828.2495377907751	-115.7408262545469	970.8725251258463	690.067354512253	-241.3213581347852	849.1055846173629	588.9486366798182	-163.7722548144059	836.2502996897416	469.2797718921548	-185.8330326501162	nan	nan	nan	768.628297373499	376.4776143967154	-235.3931290792183	643.4754674738415	414.3297734463785	-183.9220128320579	565.9789718035503	324.0185147718589	-238.7614335877263	447.2603781853259	356.5086057074183	-218.6779696649124	nan	nan	nan	393.2800185600107	220.9026898171206	-213.9016074042407	364.3005213813395	255.9719976374453	-195.0267648489228	448.9385036822048	406.962628008198	-297.3858034926602	
314	141.248	846.2068651246404	1474.50587778739	-334.6704685734252	755.2099337251337	1214.08210775304	-299.4178935576202	980.0439417041221	1373.700413401968	-348.2891472466325	885.4056604705883	1410.008362906153	-509.1590015829473	942.0194063356545	1424.858104837117	-161.6346763072951	922.2818947663345	952.6048006386856	-478.2155639258731	963.3968663940001	918.9315623428806	-234.8765087030115	726.6550152668636	1008.232442135391	-336.5857603099555	730.6523691601991	1008.670411893767	-285.026169268615	849.9899715594481	1034.976977931356	-511.5419146785314	897.7501768356822	994.6542071724804	-139.9231154714732	855.8907211038724	857.4072532481094	-539.1097935009254	994.8189200892541	731.1832071297362	-473.7140401561691	895.9606101009445	600.6156331721942	-490.2796538635355	932.3586743799269	489.1771645265889	-464.9866775559706	nan	nan	nan	985.6009986268068	380.5362267035561	-394.8140789468038	886.1862772436955	276.8833567984196	-444.2145356017221	921.7774625138488	200.0736123605498	-361.164844707302	834.5606008809536	109.0917914770826	-388.4062772163642	nan	nan	nan	976.7036100358577	63.62191959386435	-366.2230484895751	942.3797283439721	39.00048302790887	-415.9790235227164	761.854053525749	88.48529897135622	-339.3808925902678	880.1517947376982	824.9750862182501	-115.2827553326088	972.5718458771195	689.1538751041923	-241.4354636461745	852.7197842490937	586.8624375373023	-163.2083543747886	841.9043667433978	467.3718023573683	-184.912123036322	nan	nan	nan	774.9411297998174	374.7611656759283	-234.0692922289654	650.0186178387278	413.0993786469465	-182.5181925470082	571.8425280179553	323.6673883603677	-237.757653125033	453.4081165085173	356.8760318742233	-217.3230177111845	nan	nan	nan	399.8873130467107	221.2192906986795	-211.9929399720308	370.9955786220322	256.2044377880457	-192.822278181432	454.1413308105744	407.3989064479003	-296.0535770782432	
315	141.252	846.0793341480644	1473.231333837211	-335.4526190425811	753.7456375890525	1212.447927087183	-300.5538107015566	980.1824698990778	1370.64841899996	-347.5995811728272	886.9821103377427	1407.555552284589	-509.8014512751004	940.2251950340609	1422.719093883023	-161.2644988393983	920.1213958451957	948.4980327575036	-479.7880278189137	961.8356057217411	915.4234627306571	-235.0885956017668	724.822414321614	1005.339342974883	-335.5776301768385	728.8784907445309	1005.333396604769	-283.9655673121314	847.5292878044366	1031.547267140604	-511.5261782214886	895.8201083953371	989.3499272637138	-138.4035397776437	853.5144840068497	856.102170228668	-539.7221945689781	992.0063148143194	728.9805314999641	-474.7777066179025	892.4241546855742	599.109941927133	-490.4435763861565	929.098233093035	487.8246242043218	-465.4124988385629	nan	nan	nan	980.6913977970396	378.6802952347086	-394.9644130893893	879.7741762362643	276.1921961516306	-444.3155921968231	913.9164424156769	199.1025255179652	-361.0350617463621	824.9985507703656	109.5300708790488	-388.3131203667513	nan	nan	nan	966.6499377797585	63.46912069480103	-366.1867330967626	932.2151157874855	39.0223782136141	-415.9447394739955	751.9017021328154	88.91823856115066	-339.3139238532518	880.9186506289035	822.0573901752524	-114.8189542268603	974.2720924815509	688.5171823458362	-241.5606622558607	856.3474248343692	585.0442869876905	-162.6867034542485	847.6654682716485	465.7024445063605	-184.0568922951174	nan	nan	nan	781.4600020217083	373.2184167272115	-232.8011035495794	656.7321037579479	411.8918050947793	-181.1282824701884	577.976541170431	323.2162633214155	-236.7889312643755	459.7808004179161	356.9311572185525	-215.9526240344979	nan	nan	nan	407.0327825416823	221.1000806180186	-210.1146050066002	378.1749592354156	255.9210442398472	-190.5925052010846	459.345098789643	407.5741029598303	-294.6573980925767	
316	141.256	845.9666616111455	1472.121935568363	-336.2349983537362	752.2827452098537	1211.070656616586	-301.7044628249786	980.3111131307621	1367.776467430199	-346.8894124731051	888.6982721243662	1405.334864541631	-510.3224887449758	938.3627770085478	1420.753831807916	-160.9674032793876	917.9473966199704	944.5352332202191	-481.2776965865883	960.239969693953	911.9801686904929	-235.2330766986585	723.1452503900186	1002.961876805627	-334.5150745542462	727.2365432708284	1002.501589361828	-282.850717933838	845.0891377125306	1028.532402978037	-511.4330220144914	893.8540731761694	984.2788793154018	-136.8959134019651	851.1019997417612	855.0852935366772	-540.2885268536329	989.0944897460248	726.8989479050338	-475.6515100352623	888.8737623125753	597.7589373445288	-490.7138196999927	925.6069734755065	486.5523765139874	-465.9450241839109	nan	nan	nan	975.5131362581076	376.8385767688605	-395.4308855677235	873.114814283919	275.5101698741303	-444.6080306922852	905.9038334283656	198.1611900335452	-361.1738959718613	815.3728137679619	109.9239996405051	-388.4706517168166	nan	nan	nan	956.5650255390873	63.286706532305	-366.2644030190993	922.0400218635222	38.94423545852365	-415.9945221089381	741.9125105667596	89.33524254563454	-339.4418988530326	881.5365256439809	819.5123980764829	-114.3630508756467	975.9667786743556	688.1576068179273	-241.6954425789838	859.9926665589967	583.4838448554254	-162.2067419477791	853.5284382567423	464.2703839087443	-183.2748827910801	nan	nan	nan	788.1768426151735	371.8606130122516	-231.6034006823911	663.6027334881743	410.72397633579	-179.7664525297943	584.3715124616587	322.6641996875833	-235.8499707834628	466.3622518057588	356.6720921423622	-214.5697010630477	nan	nan	nan	414.6925635758602	220.5482535613677	-208.2657498358325	385.8150388409415	255.1281654295565	-188.3444098203065	464.546654332259	407.4742886141204	-293.2028298440833	
